# xmcd CD database file
#
# Track frame offsets:
#	150
#	12050
#	31108
#	39765
#	61828
#	70304
#	85088
#	90056
#	101341
#	128623
#	151449
#	156203
#	168996
#	181889
#
# Disc length: 2523 seconds
#
# Revision: 0
# Processed by: cddbd v1.5.2PL0 Copyright (c) Steve Scherf et al.
# Submitted via: CDex 1.51
#
DISCID=8f09d90e
DTITLE=Bo Stief - One Song III - Short Story
DYEAR=2005
DGENRE=Jazz
TTITLE0=Short Story
TTITLE1=Tango Bassissimo
TTITLE2=Licuriciu
TTITLE3=Come Stai - Riviera
TTITLE4=After
TTITLE5=Radio Tirana
TTITLE6=Light
TTITLE7=Warm Country
TTITLE8=Toto'
TTITLE9=Here
TTITLE10=The Master's Smile
TTITLE11=Allurment
TTITLE12=Water Song
TTITLE13=Tit Er Jeg Glad Variationer
EXTD=YEAR: 2005
EXTT0=
EXTT1=
EXTT2=
EXTT3=
EXTT4=
EXTT5=
EXTT6=
EXTT7=
EXTT8=
EXTT9=
EXTT10=
EXTT11=
EXTT12=
EXTT13=
PLAYORDER=
